<svg xmlns="http://www.w3.org/2000/svg" xmlns:xlink="http://www.w3.org/1999/xlink" zoomAndPan="magnify" preserveAspectRatio="xMidYMid meet" version="1.0" viewBox="59.8 114.36 255.38 143.52"><defs><g/></defs><g fill="#ffffff" fill-opacity="1"><g transform="translate(83.194005, 162.910374)"><g><path d="M 4.28125 0.46875 C 2.96875 0.46875 1.925781 0.0976562 1.15625 -0.640625 C 0.382812 -1.390625 0 -2.378906 0 -3.609375 C 0 -4.460938 0.191406 -5.148438 0.578125 -5.671875 C 0.960938 -6.191406 1.453125 -6.546875 2.046875 -6.734375 C 2.085938 -5.691406 2.390625 -4.875 2.953125 -4.28125 C 3.523438 -3.695312 4.265625 -3.40625 5.171875 -3.40625 C 5.890625 -3.40625 6.679688 -3.695312 7.546875 -4.28125 C 8.410156 -4.875 9.269531 -6.078125 10.125 -7.890625 C 10.988281 -9.703125 11.757812 -12.46875 12.4375 -16.1875 C 12.851562 -18.40625 13.226562 -20.851562 13.5625 -23.53125 C 13.90625 -26.207031 14.1875 -28.859375 14.40625 -31.484375 C 14.632812 -34.109375 14.804688 -36.472656 14.921875 -38.578125 C 15.035156 -40.691406 15.09375 -42.25 15.09375 -43.25 C 15.09375 -45.0625 14.820312 -46.285156 14.28125 -46.921875 C 13.738281 -47.554688 12.695312 -47.875 11.15625 -47.875 L 8.15625 -47.875 L 8.15625 -48.546875 L 36.046875 -48.546875 L 36.046875 -47.875 L 34.6875 -47.875 C 33.28125 -47.875 32.328125 -47.578125 31.828125 -46.984375 C 31.328125 -46.398438 31.078125 -44.925781 31.078125 -42.5625 L 31.078125 -5.984375 C 31.078125 -3.671875 31.328125 -2.207031 31.828125 -1.59375 C 32.328125 -0.988281 33.28125 -0.6875 34.6875 -0.6875 L 36.046875 -0.6875 L 36.046875 0 L 19.984375 0 L 19.984375 -0.6875 L 21.421875 -0.6875 C 22.773438 -0.6875 23.710938 -0.988281 24.234375 -1.59375 C 24.765625 -2.207031 25.03125 -3.671875 25.03125 -5.984375 L 25.03125 -47.875 L 15.984375 -47.875 C 15.929688 -43.019531 15.710938 -38.242188 15.328125 -33.546875 C 14.941406 -28.859375 14.476562 -24.566406 13.9375 -20.671875 C 13.394531 -16.773438 12.851562 -13.625 12.3125 -11.21875 C 11.625 -8.09375 10.875 -5.675781 10.0625 -3.96875 C 9.25 -2.269531 8.363281 -1.101562 7.40625 -0.46875 C 6.457031 0.15625 5.414062 0.46875 4.28125 0.46875 Z M 4.28125 0.46875 "/></g></g></g><g fill="#ffffff" fill-opacity="1"><g transform="translate(123.581641, 162.910374)"><g><path d="M 1.96875 0 L 1.96875 -0.6875 L 3.671875 -0.6875 C 5.078125 -0.6875 5.984375 -1 6.390625 -1.625 C 6.796875 -2.257812 7 -3.691406 7 -5.921875 L 7 -42.765625 C 7 -44.941406 6.796875 -46.335938 6.390625 -46.953125 C 5.984375 -47.566406 5.078125 -47.875 3.671875 -47.875 L 1.96875 -47.875 L 1.96875 -48.546875 L 17.8125 -48.546875 L 17.8125 -47.875 L 16.3125 -47.875 C 14.914062 -47.875 14.023438 -47.554688 13.640625 -46.921875 C 13.253906 -46.285156 13.0625 -44.859375 13.0625 -42.640625 L 13.0625 -11.359375 L 30.390625 -37.734375 L 30.390625 -42.765625 C 30.390625 -44.941406 30.195312 -46.335938 29.8125 -46.953125 C 29.425781 -47.566406 28.53125 -47.875 27.125 -47.875 L 25.640625 -47.875 L 25.640625 -48.546875 L 41.546875 -48.546875 L 41.546875 -47.875 L 39.78125 -47.875 C 38.375 -47.875 37.46875 -47.554688 37.0625 -46.921875 C 36.65625 -46.285156 36.453125 -44.859375 36.453125 -42.640625 L 36.453125 -5.78125 C 36.453125 -3.601562 36.664062 -2.207031 37.09375 -1.59375 C 37.519531 -0.988281 38.414062 -0.6875 39.78125 -0.6875 L 41.546875 -0.6875 L 41.546875 0 L 25.640625 0 L 25.640625 -0.6875 L 27.125 -0.6875 C 28.53125 -0.6875 29.425781 -1 29.8125 -1.625 C 30.195312 -2.257812 30.390625 -3.691406 30.390625 -5.921875 L 30.390625 -36.515625 L 13.0625 -10.0625 L 13.0625 -5.71875 C 13.0625 -3.582031 13.253906 -2.207031 13.640625 -1.59375 C 14.023438 -0.988281 14.914062 -0.6875 16.3125 -0.6875 L 17.8125 -0.6875 L 17.8125 0 Z M 1.96875 0 "/></g></g></g><g fill="#ffffff" fill-opacity="1"><g transform="translate(169.408654, 162.910374)"><g><path d="M 4.28125 0.46875 C 2.96875 0.46875 1.925781 0.0976562 1.15625 -0.640625 C 0.382812 -1.390625 0 -2.378906 0 -3.609375 C 0 -4.460938 0.191406 -5.148438 0.578125 -5.671875 C 0.960938 -6.191406 1.453125 -6.546875 2.046875 -6.734375 C 2.085938 -5.691406 2.390625 -4.875 2.953125 -4.28125 C 3.523438 -3.695312 4.265625 -3.40625 5.171875 -3.40625 C 5.890625 -3.40625 6.679688 -3.695312 7.546875 -4.28125 C 8.410156 -4.875 9.269531 -6.078125 10.125 -7.890625 C 10.988281 -9.703125 11.757812 -12.46875 12.4375 -16.1875 C 12.851562 -18.40625 13.226562 -20.851562 13.5625 -23.53125 C 13.90625 -26.207031 14.1875 -28.859375 14.40625 -31.484375 C 14.632812 -34.109375 14.804688 -36.472656 14.921875 -38.578125 C 15.035156 -40.691406 15.09375 -42.25 15.09375 -43.25 C 15.09375 -45.0625 14.820312 -46.285156 14.28125 -46.921875 C 13.738281 -47.554688 12.695312 -47.875 11.15625 -47.875 L 8.15625 -47.875 L 8.15625 -48.546875 L 36.046875 -48.546875 L 36.046875 -47.875 L 34.6875 -47.875 C 33.28125 -47.875 32.328125 -47.578125 31.828125 -46.984375 C 31.328125 -46.398438 31.078125 -44.925781 31.078125 -42.5625 L 31.078125 -5.984375 C 31.078125 -3.671875 31.328125 -2.207031 31.828125 -1.59375 C 32.328125 -0.988281 33.28125 -0.6875 34.6875 -0.6875 L 36.046875 -0.6875 L 36.046875 0 L 19.984375 0 L 19.984375 -0.6875 L 21.421875 -0.6875 C 22.773438 -0.6875 23.710938 -0.988281 24.234375 -1.59375 C 24.765625 -2.207031 25.03125 -3.671875 25.03125 -5.984375 L 25.03125 -47.875 L 15.984375 -47.875 C 15.929688 -43.019531 15.710938 -38.242188 15.328125 -33.546875 C 14.941406 -28.859375 14.476562 -24.566406 13.9375 -20.671875 C 13.394531 -16.773438 12.851562 -13.625 12.3125 -11.21875 C 11.625 -8.09375 10.875 -5.675781 10.0625 -3.96875 C 9.25 -2.269531 8.363281 -1.101562 7.40625 -0.46875 C 6.457031 0.15625 5.414062 0.46875 4.28125 0.46875 Z M 4.28125 0.46875 "/></g></g></g><g fill="#ffffff" fill-opacity="1"><g transform="translate(209.796288, 162.910374)"><g><path d="M 1.96875 0 L 1.96875 -0.6875 L 3.671875 -0.6875 C 5.078125 -0.6875 5.984375 -1 6.390625 -1.625 C 6.796875 -2.257812 7 -3.691406 7 -5.921875 L 7 -42.765625 C 7 -44.941406 6.796875 -46.335938 6.390625 -46.953125 C 5.984375 -47.566406 5.078125 -47.875 3.671875 -47.875 L 1.96875 -47.875 L 1.96875 -48.546875 L 17.8125 -48.546875 L 17.8125 -47.875 L 16.3125 -47.875 C 14.914062 -47.875 14.023438 -47.554688 13.640625 -46.921875 C 13.253906 -46.285156 13.0625 -44.859375 13.0625 -42.640625 L 13.0625 -11.359375 L 30.390625 -37.734375 L 30.390625 -42.765625 C 30.390625 -44.941406 30.195312 -46.335938 29.8125 -46.953125 C 29.425781 -47.566406 28.53125 -47.875 27.125 -47.875 L 25.640625 -47.875 L 25.640625 -48.546875 L 41.546875 -48.546875 L 41.546875 -47.875 L 39.78125 -47.875 C 38.375 -47.875 37.46875 -47.554688 37.0625 -46.921875 C 36.65625 -46.285156 36.453125 -44.859375 36.453125 -42.640625 L 36.453125 -5.78125 C 36.453125 -3.601562 36.664062 -2.207031 37.09375 -1.59375 C 37.519531 -0.988281 38.414062 -0.6875 39.78125 -0.6875 L 41.546875 -0.6875 L 41.546875 0 L 25.640625 0 L 25.640625 -0.6875 L 27.125 -0.6875 C 28.53125 -0.6875 29.425781 -1 29.8125 -1.625 C 30.195312 -2.257812 30.390625 -3.691406 30.390625 -5.921875 L 30.390625 -36.515625 L 13.0625 -10.0625 L 13.0625 -5.71875 C 13.0625 -3.582031 13.253906 -2.207031 13.640625 -1.59375 C 14.023438 -0.988281 14.914062 -0.6875 16.3125 -0.6875 L 17.8125 -0.6875 L 17.8125 0 Z M 1.96875 0 "/></g></g></g><g fill="#ffffff" fill-opacity="1"><g transform="translate(255.623304, 162.910374)"><g><path d="M -0.34375 0 L -0.34375 -0.6875 L 0.140625 -0.6875 C 0.773438 -0.6875 1.363281 -0.890625 1.90625 -1.296875 C 2.445312 -1.703125 3.035156 -2.457031 3.671875 -3.5625 C 4.304688 -4.675781 5.097656 -6.273438 6.046875 -8.359375 L 12.78125 -22.515625 C 11.507812 -22.921875 10.296875 -23.578125 9.140625 -24.484375 C 7.984375 -25.390625 7.019531 -26.679688 6.25 -28.359375 C 5.476562 -30.035156 5.09375 -32.253906 5.09375 -35.015625 C 5.09375 -37.691406 5.566406 -40.050781 6.515625 -42.09375 C 7.472656 -44.132812 9.015625 -45.71875 11.140625 -46.84375 C 13.273438 -47.976562 16.085938 -48.546875 19.578125 -48.546875 L 34.265625 -48.546875 L 34.265625 -47.875 L 32.640625 -47.875 C 31.191406 -47.875 30.25 -47.554688 29.8125 -46.921875 C 29.382812 -46.285156 29.171875 -44.898438 29.171875 -42.765625 L 29.171875 -5.78125 C 29.171875 -3.644531 29.382812 -2.257812 29.8125 -1.625 C 30.25 -1 31.191406 -0.6875 32.640625 -0.6875 L 34.265625 -0.6875 L 34.265625 0 L 18.296875 0 L 18.296875 -0.6875 L 19.78125 -0.6875 C 21.1875 -0.6875 22.101562 -1 22.53125 -1.625 C 22.96875 -2.257812 23.1875 -3.644531 23.1875 -5.78125 L 23.1875 -22.09375 L 18.421875 -22.09375 L 11.421875 -6.390625 C 10.609375 -4.753906 9.78125 -3.472656 8.9375 -2.546875 C 8.101562 -1.617188 7.070312 -0.960938 5.84375 -0.578125 C 4.625 -0.191406 3.082031 0 1.21875 0 Z M 19.453125 -22.78125 L 23.1875 -22.78125 L 23.1875 -47.875 L 20.609375 -47.875 C 17.296875 -47.875 14.945312 -46.757812 13.5625 -44.53125 C 12.175781 -42.3125 11.484375 -39.207031 11.484375 -35.21875 C 11.484375 -31.007812 12.117188 -27.882812 13.390625 -25.84375 C 14.660156 -23.800781 16.679688 -22.78125 19.453125 -22.78125 Z M 19.453125 -22.78125 "/></g></g></g><g fill="#ffffff" fill-opacity="1"><g transform="translate(92.815098, 257.410368)"><g><path d="M 1.90625 0 L 1.90625 -0.6875 L 3.671875 -0.6875 C 5.078125 -0.6875 5.984375 -1.023438 6.390625 -1.703125 C 6.796875 -2.378906 7 -3.804688 7 -5.984375 L 7 -42.640625 C 7 -44.859375 6.785156 -46.285156 6.359375 -46.921875 C 5.929688 -47.554688 5.082031 -47.875 3.8125 -47.875 L 1.90625 -47.875 L 1.90625 -48.546875 L 28.421875 -48.546875 L 28.765625 -36.859375 L 28.078125 -36.859375 L 27.875 -40.734375 C 27.738281 -42.585938 27.457031 -44.023438 27.03125 -45.046875 C 26.601562 -46.066406 25.910156 -46.789062 24.953125 -47.21875 C 24.003906 -47.65625 22.644531 -47.875 20.875 -47.875 L 13.0625 -47.875 L 13.0625 -26.796875 L 17.265625 -26.796875 C 22.296875 -26.796875 25.890625 -25.679688 28.046875 -23.453125 C 30.203125 -21.234375 31.28125 -17.925781 31.28125 -13.53125 C 31.28125 -9.40625 30.191406 -6.117188 28.015625 -3.671875 C 25.835938 -1.222656 22.1875 0 17.0625 0 Z M 13.0625 -0.6875 L 16.59375 -0.6875 C 19.769531 -0.6875 21.957031 -1.75 23.15625 -3.875 C 24.351562 -6.007812 24.953125 -9.226562 24.953125 -13.53125 C 24.953125 -18.113281 24.269531 -21.351562 22.90625 -23.25 C 21.550781 -25.15625 19.242188 -26.109375 15.984375 -26.109375 L 13.0625 -26.109375 Z M 13.0625 -0.6875 "/></g></g></g><g fill="#ffffff" fill-opacity="1"><g transform="translate(128.579265, 257.410368)"><g><path d="M 1.90625 0 L 1.90625 -0.6875 L 3.328125 -0.6875 C 4.691406 -0.6875 5.644531 -0.976562 6.1875 -1.5625 C 6.726562 -2.15625 7 -3.582031 7 -5.84375 L 7 -42.5625 C 7 -44.875 6.738281 -46.335938 6.21875 -46.953125 C 5.695312 -47.566406 4.734375 -47.875 3.328125 -47.875 L 1.90625 -47.875 L 1.90625 -48.546875 L 29.640625 -48.546875 L 29.984375 -36.78125 L 29.3125 -36.78125 L 29.171875 -40.328125 C 29.035156 -42.367188 28.726562 -43.929688 28.25 -45.015625 C 27.78125 -46.097656 27.007812 -46.84375 25.9375 -47.25 C 24.875 -47.664062 23.390625 -47.875 21.484375 -47.875 L 12.984375 -47.875 L 12.984375 -25.765625 L 26.65625 -25.765625 L 26.65625 -25.09375 L 12.984375 -25.09375 L 12.921875 -0.6875 L 23.390625 -0.6875 C 25.296875 -0.6875 26.757812 -0.878906 27.78125 -1.265625 C 28.800781 -1.648438 29.535156 -2.328125 29.984375 -3.296875 C 30.441406 -4.273438 30.738281 -5.671875 30.875 -7.484375 L 31.140625 -11.765625 L 31.828125 -11.765625 L 31.421875 0 Z M 1.90625 0 "/></g></g></g><g fill="#ffffff" fill-opacity="1"><g transform="translate(164.75139, 257.410368)"><g><path d="M 4.28125 0.46875 C 2.96875 0.46875 1.925781 0.0976562 1.15625 -0.640625 C 0.382812 -1.390625 0 -2.378906 0 -3.609375 C 0 -4.460938 0.191406 -5.148438 0.578125 -5.671875 C 0.960938 -6.191406 1.453125 -6.546875 2.046875 -6.734375 C 2.085938 -5.691406 2.390625 -4.875 2.953125 -4.28125 C 3.523438 -3.695312 4.265625 -3.40625 5.171875 -3.40625 C 5.890625 -3.40625 6.679688 -3.695312 7.546875 -4.28125 C 8.410156 -4.875 9.269531 -6.078125 10.125 -7.890625 C 10.988281 -9.703125 11.757812 -12.46875 12.4375 -16.1875 C 12.851562 -18.40625 13.226562 -20.851562 13.5625 -23.53125 C 13.90625 -26.207031 14.1875 -28.859375 14.40625 -31.484375 C 14.632812 -34.109375 14.804688 -36.472656 14.921875 -38.578125 C 15.035156 -40.691406 15.09375 -42.25 15.09375 -43.25 C 15.09375 -45.0625 14.820312 -46.285156 14.28125 -46.921875 C 13.738281 -47.554688 12.695312 -47.875 11.15625 -47.875 L 8.15625 -47.875 L 8.15625 -48.546875 L 36.046875 -48.546875 L 36.046875 -47.875 L 34.6875 -47.875 C 33.28125 -47.875 32.328125 -47.578125 31.828125 -46.984375 C 31.328125 -46.398438 31.078125 -44.925781 31.078125 -42.5625 L 31.078125 -5.984375 C 31.078125 -3.671875 31.328125 -2.207031 31.828125 -1.59375 C 32.328125 -0.988281 33.28125 -0.6875 34.6875 -0.6875 L 36.046875 -0.6875 L 36.046875 0 L 19.984375 0 L 19.984375 -0.6875 L 21.421875 -0.6875 C 22.773438 -0.6875 23.710938 -0.988281 24.234375 -1.59375 C 24.765625 -2.207031 25.03125 -3.671875 25.03125 -5.984375 L 25.03125 -47.875 L 15.984375 -47.875 C 15.929688 -43.019531 15.710938 -38.242188 15.328125 -33.546875 C 14.941406 -28.859375 14.476562 -24.566406 13.9375 -20.671875 C 13.394531 -16.773438 12.851562 -13.625 12.3125 -11.21875 C 11.625 -8.09375 10.875 -5.675781 10.0625 -3.96875 C 9.25 -2.269531 8.363281 -1.101562 7.40625 -0.46875 C 6.457031 0.15625 5.414062 0.46875 4.28125 0.46875 Z M 4.28125 0.46875 "/></g></g></g><g fill="#ffffff" fill-opacity="1"><g transform="translate(205.139024, 257.410368)"><g><path d="M 0.0625 0 L 0.0625 -0.6875 L 2.046875 -0.6875 C 3.265625 -0.6875 4.144531 -1.023438 4.6875 -1.703125 C 5.238281 -2.378906 5.804688 -3.828125 6.390625 -6.046875 L 17.546875 -48.546875 L 22.03125 -48.546875 L 34.46875 -3.875 C 34.832031 -2.5625 35.253906 -1.703125 35.734375 -1.296875 C 36.210938 -0.890625 36.992188 -0.6875 38.078125 -0.6875 L 38.5625 -0.6875 L 38.5625 0 L 23.453125 0 L 23.453125 -0.6875 L 25.5 -0.6875 C 26.769531 -0.6875 27.597656 -0.84375 27.984375 -1.15625 C 28.367188 -1.46875 28.5625 -1.921875 28.5625 -2.515625 C 28.5625 -3.054688 28.445312 -3.703125 28.21875 -4.453125 C 27.988281 -5.203125 27.785156 -5.960938 27.609375 -6.734375 L 24.8125 -17.6875 L 10.203125 -17.6875 L 7.609375 -7.890625 C 7.335938 -6.890625 7.085938 -5.910156 6.859375 -4.953125 C 6.640625 -4.003906 6.53125 -3.238281 6.53125 -2.65625 C 6.53125 -1.925781 6.742188 -1.414062 7.171875 -1.125 C 7.597656 -0.832031 8.378906 -0.6875 9.515625 -0.6875 L 12.4375 -0.6875 L 12.4375 0 Z M 10.40625 -18.359375 L 24.609375 -18.359375 L 20.125 -35.765625 C 19.582031 -37.984375 19.140625 -39.757812 18.796875 -41.09375 C 18.460938 -42.4375 18.191406 -43.492188 17.984375 -44.265625 C 17.785156 -45.035156 17.640625 -45.691406 17.546875 -46.234375 C 17.273438 -45.054688 17.054688 -44.082031 16.890625 -43.3125 C 16.734375 -42.539062 16.550781 -41.78125 16.34375 -41.03125 C 16.144531 -40.289062 15.890625 -39.328125 15.578125 -38.140625 Z M 10.40625 -18.359375 "/></g></g></g><g fill="#ffffff" fill-opacity="1"><g transform="translate(246.002612, 257.410368)"><g><path d="M -0.34375 0 L -0.34375 -0.6875 L 0.140625 -0.6875 C 0.773438 -0.6875 1.363281 -0.890625 1.90625 -1.296875 C 2.445312 -1.703125 3.035156 -2.457031 3.671875 -3.5625 C 4.304688 -4.675781 5.097656 -6.273438 6.046875 -8.359375 L 12.78125 -22.515625 C 11.507812 -22.921875 10.296875 -23.578125 9.140625 -24.484375 C 7.984375 -25.390625 7.019531 -26.679688 6.25 -28.359375 C 5.476562 -30.035156 5.09375 -32.253906 5.09375 -35.015625 C 5.09375 -37.691406 5.566406 -40.050781 6.515625 -42.09375 C 7.472656 -44.132812 9.015625 -45.71875 11.140625 -46.84375 C 13.273438 -47.976562 16.085938 -48.546875 19.578125 -48.546875 L 34.265625 -48.546875 L 34.265625 -47.875 L 32.640625 -47.875 C 31.191406 -47.875 30.25 -47.554688 29.8125 -46.921875 C 29.382812 -46.285156 29.171875 -44.898438 29.171875 -42.765625 L 29.171875 -5.78125 C 29.171875 -3.644531 29.382812 -2.257812 29.8125 -1.625 C 30.25 -1 31.191406 -0.6875 32.640625 -0.6875 L 34.265625 -0.6875 L 34.265625 0 L 18.296875 0 L 18.296875 -0.6875 L 19.78125 -0.6875 C 21.1875 -0.6875 22.101562 -1 22.53125 -1.625 C 22.96875 -2.257812 23.1875 -3.644531 23.1875 -5.78125 L 23.1875 -22.09375 L 18.421875 -22.09375 L 11.421875 -6.390625 C 10.609375 -4.753906 9.78125 -3.472656 8.9375 -2.546875 C 8.101562 -1.617188 7.070312 -0.960938 5.84375 -0.578125 C 4.625 -0.191406 3.082031 0 1.21875 0 Z M 19.453125 -22.78125 L 23.1875 -22.78125 L 23.1875 -47.875 L 20.609375 -47.875 C 17.296875 -47.875 14.945312 -46.757812 13.5625 -44.53125 C 12.175781 -42.3125 11.484375 -39.207031 11.484375 -35.21875 C 11.484375 -31.007812 12.117188 -27.882812 13.390625 -25.84375 C 14.660156 -23.800781 16.679688 -22.78125 19.453125 -22.78125 Z M 19.453125 -22.78125 "/></g></g></g><path stroke-linecap="round" transform="matrix(0.902473, 0, 0, 0.902473, 60.762147, 140.249609)" fill="none" stroke-linejoin="miter" d="M 0.501618 0.498197 L 280.366435 0.498197 " stroke="#000000" stroke-width="1" stroke-opacity="1" stroke-miterlimit="4"/><path stroke-linecap="round" transform="matrix(0.902473, 0, 0, 0.902473, 60.762147, 228.168647)" fill="none" stroke-linejoin="miter" d="M 0.501618 0.501341 L 69.223412 0.501341 " stroke="#000000" stroke-width="1" stroke-opacity="1" stroke-miterlimit="4"/><path stroke-linecap="round" transform="matrix(0.902473, 0, 0, 0.902473, 251.313533, 228.168647)" fill="none" stroke-linejoin="miter" d="M 0.500948 0.501341 L 69.222742 0.501341 " stroke="#000000" stroke-width="1" stroke-opacity="1" stroke-miterlimit="4"/><path stroke-linecap="round" transform="matrix(0, -0.902473, 0.902473, 0, 314.231557, 228.839224)" fill="none" stroke-linejoin="miter" d="M 0.501406 0.500887 L 97.171591 0.500887 " stroke="#000000" stroke-width="1" stroke-opacity="1" stroke-miterlimit="4"/><path stroke-linecap="round" transform="matrix(0, -0.902473, 0.902473, 0, 59.853392, 228.839224)" fill="none" stroke-linejoin="miter" d="M 0.501406 0.500066 L 97.171591 0.500066 " stroke="#000000" stroke-width="1" stroke-opacity="1" stroke-miterlimit="4"/><g fill="#000000" fill-opacity="1"><g transform="translate(62.742485, 187.903303)"><g><path d="M 27.640625 -8.921875 C 29.492188 -7.722656 31.96875 -6.285156 35.0625 -4.609375 C 38.15625 -2.929688 41.910156 -0.972656 46.328125 1.265625 L 43.84375 2.09375 C 42.5 1.414062 41.210938 0.765625 39.984375 0.140625 C 38.765625 -0.484375 37.601562 -1.09375 36.5 -1.6875 C 33.8125 -3.0625 31.550781 -4.273438 29.71875 -5.328125 C 27.882812 -6.378906 26.425781 -7.289062 25.34375 -8.0625 C 23.90625 -7.289062 22.363281 -6.609375 20.71875 -6.015625 C 19.070312 -5.429688 17.3125 -4.953125 15.4375 -4.578125 C 14 -2.921875 12.765625 -1.519531 11.734375 -0.375 C 10.703125 0.757812 9.851562 1.640625 9.1875 2.265625 C 7.550781 3.847656 5.304688 5.707031 2.453125 7.84375 C 2.378906 7.75 2.34375 7.59375 2.34375 7.375 C 2.34375 7.226562 2.773438 6.8125 3.640625 6.125 C 4.335938 5.59375 5.007812 5.054688 5.65625 4.515625 C 6.300781 3.972656 6.9375 3.414062 7.5625 2.84375 C 8.644531 1.863281 9.726562 0.78125 10.8125 -0.40625 C 11.90625 -1.601562 13.050781 -2.90625 14.25 -4.3125 C 12.957031 -4.125 11.84375 -3.988281 10.90625 -3.90625 C 9.96875 -3.820312 9.1875 -3.78125 8.5625 -3.78125 C 7.269531 -3.78125 6.132812 -3.910156 5.15625 -4.171875 C 4.1875 -4.441406 3.351562 -4.875 2.65625 -5.46875 C 1.5625 -6.382812 1 -7.585938 0.96875 -9.078125 C 0.96875 -10.703125 1.941406 -12.09375 3.890625 -13.25 C 5.859375 -14.375 8.269531 -14.9375 11.125 -14.9375 C 11.75 -14.9375 12.394531 -14.894531 13.0625 -14.8125 C 13.738281 -14.726562 14.4375 -14.59375 15.15625 -14.40625 C 16.113281 -14.1875 17.914062 -13.644531 20.5625 -12.78125 L 30.34375 -24.765625 L 30.75 -23.9375 C 29.6875 -22.644531 28.398438 -21.035156 26.890625 -19.109375 C 25.378906 -17.191406 23.578125 -14.9375 21.484375 -12.34375 C 21.972656 -12.082031 22.617188 -11.726562 23.421875 -11.28125 C 24.222656 -10.84375 25.210938 -10.285156 26.390625 -9.609375 C 27.992188 -10.453125 29.710938 -11.460938 31.546875 -12.640625 C 33.390625 -13.816406 35.378906 -15.179688 37.515625 -16.734375 C 39.378906 -18.109375 41.113281 -19.445312 42.71875 -20.75 C 44.332031 -22.0625 45.847656 -23.363281 47.265625 -24.65625 C 47.460938 -24.851562 47.8125 -25.195312 48.3125 -25.6875 C 48.8125 -26.175781 49.472656 -26.851562 50.296875 -27.71875 C 51.160156 -28.53125 51.757812 -28.972656 52.09375 -29.046875 C 52.3125 -29.046875 52.585938 -28.953125 52.921875 -28.765625 C 53.160156 -28.597656 53.289062 -28.429688 53.3125 -28.265625 C 53.3125 -27.203125 50.695312 -24.609375 45.46875 -20.484375 C 39.78125 -16.085938 33.835938 -12.234375 27.640625 -8.921875 Z M 20.34375 -10.90625 C 19.832031 -10.257812 19.265625 -9.535156 18.640625 -8.734375 C 18.023438 -7.929688 17.332031 -7.0625 16.5625 -6.125 C 18.050781 -6.332031 20.65625 -7.160156 24.375 -8.609375 Z M 19.46875 -11.15625 C 15.65625 -12.882812 12.164062 -13.75 9 -13.75 C 7.15625 -13.75 5.535156 -13.328125 4.140625 -12.484375 C 2.816406 -11.671875 2.15625 -10.664062 2.15625 -9.46875 C 2.15625 -8.34375 2.816406 -7.359375 4.140625 -6.515625 C 5.460938 -5.722656 7.128906 -5.328125 9.140625 -5.328125 C 9.453125 -5.328125 10.113281 -5.363281 11.125 -5.4375 C 12.132812 -5.507812 13.523438 -5.628906 15.296875 -5.796875 Z M 19.46875 -11.15625 "/></g></g></g><g fill="#000000" fill-opacity="1"><g transform="translate(115.626591, 187.903303)"><g><path d="M 8.3125 -13.140625 C 8.3125 -13.117188 5.78125 -10.210938 0.71875 -4.421875 C 1.175781 -4.660156 1.628906 -4.898438 2.078125 -5.140625 C 2.535156 -5.390625 3.003906 -5.644531 3.484375 -5.90625 C 4.640625 -6.40625 5.6875 -6.671875 6.625 -6.703125 C 7.632812 -6.703125 8.175781 -6.253906 8.25 -5.359375 C 8.25 -4.785156 7.765625 -3.984375 6.796875 -2.953125 C 6.347656 -2.472656 5.847656 -2.035156 5.296875 -1.640625 C 4.742188 -1.242188 4.117188 -0.84375 3.421875 -0.4375 C 2.023438 0.28125 0.910156 0.65625 0.078125 0.6875 C -0.117188 0.6875 -0.273438 0.648438 -0.390625 0.578125 C -0.515625 0.503906 -0.632812 0.40625 -0.75 0.28125 C -0.96875 0.0703125 -1.078125 -0.203125 -1.078125 -0.546875 C -1.078125 -1.210938 -0.847656 -1.570312 -0.390625 -1.625 C -0.148438 -1.625 0.00390625 -1.550781 0.078125 -1.40625 C 0.148438 -1.3125 0.242188 -1.144531 0.359375 -0.90625 C 0.523438 -0.539062 0.894531 -0.359375 1.46875 -0.359375 C 2.21875 -0.359375 3.273438 -0.9375 4.640625 -2.09375 C 6.035156 -3.164062 6.734375 -4.125 6.734375 -4.96875 C 6.734375 -5.351562 6.300781 -5.582031 5.4375 -5.65625 C 4.625 -5.65625 3.796875 -5.390625 2.953125 -4.859375 C 2.617188 -4.640625 2.117188 -4.265625 1.453125 -3.734375 C 0.796875 -3.210938 -0.0234375 -2.53125 -1.015625 -1.6875 C -2.253906 -0.632812 -3.535156 0.613281 -4.859375 2.0625 C -6.179688 3.519531 -7.5625 5.207031 -9 7.125 C -11.445312 10.53125 -12.78125 12.71875 -13 13.6875 L -13 14.96875 C -13 15.3125 -13.117188 15.554688 -13.359375 15.703125 C -13.546875 15.835938 -13.773438 15.929688 -14.046875 15.984375 C -14.179688 15.984375 -14.316406 15.96875 -14.453125 15.9375 C -14.585938 15.914062 -14.710938 15.859375 -14.828125 15.765625 C -15.066406 15.648438 -15.222656 15.445312 -15.296875 15.15625 C -15.296875 14.726562 -15.140625 14.34375 -14.828125 14 C -14.566406 13.519531 -14.359375 13.164062 -14.203125 12.9375 C -14.046875 12.707031 -13.957031 12.570312 -13.9375 12.53125 C -13.164062 11.113281 -12.046875 9.429688 -10.578125 7.484375 C -9.117188 5.546875 -7.296875 3.300781 -5.109375 0.75 C -4.078125 -0.46875 -2.546875 -2.21875 -0.515625 -4.5 C 1.503906 -6.78125 4.085938 -9.625 7.234375 -13.03125 C 7.546875 -13.34375 7.8125 -13.507812 8.03125 -13.53125 C 8.144531 -13.53125 8.238281 -13.398438 8.3125 -13.140625 Z M 8.3125 -13.140625 "/></g></g></g><g fill="#000000" fill-opacity="1"><g transform="translate(127.578617, 187.903303)"><g><path d="M 14.96875 -3.0625 C 15.019531 -2.863281 14.972656 -2.726562 14.828125 -2.65625 C 13.171875 -1.625 11.582031 -0.742188 10.0625 -0.015625 C 8.539062 0.710938 7.210938 1.078125 6.078125 1.078125 C 4.785156 1.078125 4.101562 0.101562 4.03125 -1.84375 C 3.8125 -1.71875 3.476562 -1.53125 3.03125 -1.28125 C 2.59375 -1.03125 2.128906 -0.769531 1.640625 -0.5 C 1.148438 -0.238281 0.65625 -0.0078125 0.15625 0.1875 C -0.332031 0.394531 -0.734375 0.515625 -1.046875 0.546875 C -1.503906 0.585938 -1.914062 0.523438 -2.28125 0.359375 C -2.65625 0.191406 -2.890625 -0.15625 -2.984375 -0.6875 C -2.984375 -1.738281 -2 -3.035156 -0.03125 -4.578125 C 0.96875 -5.316406 1.925781 -5.878906 2.84375 -6.265625 C 3.757812 -6.648438 4.523438 -6.84375 5.140625 -6.84375 C 6.035156 -6.863281 6.492188 -6.644531 6.515625 -6.1875 C 6.515625 -5.757812 6.359375 -5.410156 6.046875 -5.140625 C 5.804688 -4.929688 5.503906 -4.828125 5.140625 -4.828125 C 5.117188 -4.847656 5.097656 -4.894531 5.078125 -4.96875 C 5.054688 -5.019531 5.03125 -5.070312 5 -5.125 C 4.976562 -5.1875 4.941406 -5.265625 4.890625 -5.359375 C 4.753906 -5.722656 4.46875 -5.914062 4.03125 -5.9375 C 3.09375 -5.9375 2 -5.410156 0.75 -4.359375 C -0.445312 -3.347656 -1.046875 -2.4375 -1.046875 -1.625 C -1.046875 -1.425781 -1.007812 -1.25 -0.9375 -1.09375 C -0.863281 -0.9375 -0.734375 -0.847656 -0.546875 -0.828125 C 0.128906 -0.773438 0.796875 -0.878906 1.453125 -1.140625 C 2.117188 -1.410156 2.820312 -1.796875 3.5625 -2.296875 C 3.875 -2.515625 4.414062 -3.046875 5.1875 -3.890625 C 5.664062 -4.460938 6.082031 -4.738281 6.4375 -4.71875 C 6.726562 -4.71875 6.875 -4.597656 6.875 -4.359375 C 6.875 -4.140625 6.671875 -3.671875 6.265625 -2.953125 C 5.878906 -2.273438 5.6875 -1.78125 5.6875 -1.46875 C 5.6875 -0.582031 6.117188 -0.128906 6.984375 -0.109375 C 7.753906 -0.109375 8.523438 -0.226562 9.296875 -0.46875 C 10.078125 -0.707031 10.800781 -0.992188 11.46875 -1.328125 C 12.144531 -1.671875 12.742188 -2.007812 13.265625 -2.34375 C 13.785156 -2.675781 14.164062 -2.925781 14.40625 -3.09375 C 14.519531 -3.144531 14.628906 -3.1875 14.734375 -3.21875 C 14.847656 -3.257812 14.925781 -3.207031 14.96875 -3.0625 Z M 14.96875 -3.0625 "/></g></g></g><g fill="#000000" fill-opacity="1"><g transform="translate(143.418646, 187.903303)"><g><path d="M 11.234375 -3.125 C 11.398438 -3.300781 11.53125 -3.269531 11.625 -3.03125 C 11.625 -2.8125 11.566406 -2.675781 11.453125 -2.625 C 10.660156 -2.070312 9.820312 -1.539062 8.9375 -1.03125 C 8.0625 -0.53125 7.1875 -0.0976562 6.3125 0.265625 C 5.4375 0.640625 4.566406 0.941406 3.703125 1.171875 C 2.835938 1.398438 2.007812 1.515625 1.21875 1.515625 C 0.28125 1.515625 -0.515625 1.296875 -1.171875 0.859375 C -1.828125 0.429688 -2.15625 -0.3125 -2.15625 -1.375 C -2.15625 -1.988281 -1.960938 -2.648438 -1.578125 -3.359375 C -1.203125 -4.066406 -0.582031 -4.769531 0.28125 -5.46875 C 0.71875 -5.832031 1.175781 -6.160156 1.65625 -6.453125 C 2.132812 -6.753906 2.617188 -7.015625 3.109375 -7.234375 C 3.609375 -7.453125 4.082031 -7.617188 4.53125 -7.734375 C 4.988281 -7.859375 5.410156 -7.921875 5.796875 -7.921875 C 6.609375 -7.921875 7.015625 -7.5625 7.015625 -6.84375 C 7.015625 -6.507812 6.863281 -6.164062 6.5625 -5.8125 C 6.269531 -5.46875 5.910156 -5.148438 5.484375 -4.859375 C 5.066406 -4.566406 4.625 -4.332031 4.15625 -4.15625 C 3.6875 -3.976562 3.285156 -3.890625 2.953125 -3.890625 C 2.734375 -3.890625 2.535156 -3.957031 2.359375 -4.09375 C 2.179688 -4.238281 2.09375 -4.410156 2.09375 -4.609375 C 2.09375 -4.847656 2.203125 -5.023438 2.421875 -5.140625 C 2.648438 -5.265625 2.921875 -5.328125 3.234375 -5.328125 C 3.285156 -5.328125 3.425781 -5.296875 3.65625 -5.234375 C 3.882812 -5.171875 4.128906 -5.140625 4.390625 -5.140625 C 4.535156 -5.140625 4.691406 -5.175781 4.859375 -5.25 C 5.023438 -5.320312 5.179688 -5.425781 5.328125 -5.5625 C 5.472656 -5.695312 5.597656 -5.832031 5.703125 -5.96875 C 5.816406 -6.113281 5.875 -6.257812 5.875 -6.40625 C 5.875 -6.769531 5.535156 -6.953125 4.859375 -6.953125 C 4.398438 -6.953125 3.828125 -6.796875 3.140625 -6.484375 C 2.460938 -6.171875 1.835938 -5.75 1.265625 -5.21875 C 0.710938 -4.738281 0.28125 -4.21875 -0.03125 -3.65625 C -0.34375 -3.09375 -0.515625 -2.582031 -0.546875 -2.125 C -0.585938 -1.3125 -0.328125 -0.707031 0.234375 -0.3125 C 0.796875 0.0820312 1.582031 0.28125 2.59375 0.28125 C 3.332031 0.28125 4.234375 0.117188 5.296875 -0.203125 C 6.367188 -0.523438 7.421875 -0.9375 8.453125 -1.4375 C 8.796875 -1.601562 9.078125 -1.757812 9.296875 -1.90625 C 9.523438 -2.050781 9.734375 -2.179688 9.921875 -2.296875 C 10.117188 -2.421875 10.3125 -2.546875 10.5 -2.671875 C 10.695312 -2.804688 10.941406 -2.957031 11.234375 -3.125 Z M 11.234375 -3.125 "/></g></g></g><g fill="#000000" fill-opacity="1"><g transform="translate(155.838666, 187.903303)"><g><path d="M 12.421875 -5.90625 C 12.421875 -5.832031 12.414062 -5.765625 12.40625 -5.703125 C 12.394531 -5.640625 12.351562 -5.5625 12.28125 -5.46875 C 11.414062 -4.414062 10.09375 -3.289062 8.3125 -2.09375 C 7.351562 -1.394531 6.515625 -0.875 5.796875 -0.53125 C 5.078125 -0.195312 4.476562 -0.0195312 4 0 C 3.320312 0 2.742188 -0.226562 2.265625 -0.6875 C 2.046875 -0.394531 1.492188 0 0.609375 0.5 C -0.421875 1.050781 -1.378906 1.328125 -2.265625 1.328125 C -3.515625 1.328125 -4.140625 0.835938 -4.140625 -0.140625 C -4.140625 -0.785156 -3.898438 -1.460938 -3.421875 -2.171875 C -2.941406 -2.878906 -2.242188 -3.644531 -1.328125 -4.46875 C -0.441406 -5.226562 0.390625 -5.789062 1.171875 -6.15625 C 1.953125 -6.519531 2.65625 -6.703125 3.28125 -6.703125 C 4.5 -6.703125 5.109375 -6.125 5.109375 -4.96875 C 5.109375 -3.695312 4.390625 -2.445312 2.953125 -1.21875 C 3.265625 -0.90625 3.648438 -0.75 4.109375 -0.75 C 4.921875 -0.75 6.25 -1.410156 8.09375 -2.734375 C 8.882812 -3.285156 9.609375 -3.835938 10.265625 -4.390625 C 10.929688 -4.941406 11.53125 -5.492188 12.0625 -6.046875 C 12.082031 -6.117188 12.15625 -6.128906 12.28125 -6.078125 C 12.375 -6.078125 12.421875 -6.019531 12.421875 -5.90625 Z M 4.609375 -5.25 C 4.609375 -5.632812 4.390625 -5.851562 3.953125 -5.90625 C 3.398438 -5.90625 2.921875 -5.664062 2.515625 -5.1875 C 2.160156 -4.75 1.957031 -4.234375 1.90625 -3.640625 C 1.90625 -2.742188 2.0625 -2.15625 2.375 -1.875 C 3.8125 -3 4.554688 -4.125 4.609375 -5.25 Z M 1.84375 -1.296875 C 1.351562 -1.773438 1.109375 -2.398438 1.109375 -3.171875 C 1.109375 -4.203125 1.328125 -4.929688 1.765625 -5.359375 C -1.085938 -4.046875 -2.515625 -2.664062 -2.515625 -1.21875 C -2.515625 -0.332031 -2.164062 0.109375 -1.46875 0.109375 C -0.414062 0.109375 0.6875 -0.359375 1.84375 -1.296875 Z M 1.84375 -1.296875 "/></g></g></g><g fill="#000000" fill-opacity="1"><g transform="translate(166.71069, 187.903303)"><g><path d="M 24.34375 -2.703125 C 24.363281 -2.628906 24.351562 -2.550781 24.3125 -2.46875 C 24.28125 -2.382812 24.226562 -2.34375 24.15625 -2.34375 C 22.957031 -1.71875 21.941406 -1.207031 21.109375 -0.8125 C 20.285156 -0.414062 19.566406 -0.0976562 18.953125 0.140625 C 18.335938 0.378906 17.796875 0.546875 17.328125 0.640625 C 16.859375 0.742188 16.382812 0.796875 15.90625 0.796875 C 14.488281 0.796875 13.78125 0.125 13.78125 -1.21875 C 13.78125 -1.695312 13.835938 -2.164062 13.953125 -2.625 C 14.078125 -3.082031 14.273438 -3.550781 14.546875 -4.03125 C 14.378906 -4.03125 14.128906 -3.945312 13.796875 -3.78125 C 13.472656 -3.613281 13.160156 -3.445312 12.859375 -3.28125 C 11.722656 -2.769531 10.691406 -2.195312 9.765625 -1.5625 C 8.847656 -0.925781 8.066406 -0.414062 7.421875 -0.03125 C 6.285156 0.59375 5.597656 0.90625 5.359375 0.90625 C 4.878906 0.90625 4.640625 0.6875 4.640625 0.25 C 4.640625 -0.132812 4.960938 -0.757812 5.609375 -1.625 L 8.03125 -4.5 C 5.269531 -2.769531 3.15625 -1.472656 1.6875 -0.609375 C 0.226562 0.253906 -0.570312 0.695312 -0.71875 0.71875 C -1.101562 0.71875 -1.296875 0.5625 -1.296875 0.25 C -1.148438 0.101562 -0.984375 -0.0859375 -0.796875 -0.328125 C -0.628906 -0.515625 -0.414062 -0.742188 -0.15625 -1.015625 C 0.09375 -1.296875 0.382812 -1.617188 0.71875 -1.984375 C 1.414062 -2.722656 1.9375 -3.332031 2.28125 -3.8125 C 2.632812 -4.289062 2.8125 -4.664062 2.8125 -4.9375 C 2.8125 -5.03125 2.722656 -5.078125 2.546875 -5.078125 C 2.378906 -5.078125 2.226562 -5.050781 2.09375 -5 C 1.925781 -4.957031 1.742188 -4.898438 1.546875 -4.828125 C 1.359375 -4.753906 1.210938 -4.71875 1.109375 -4.71875 C 0.972656 -4.71875 0.90625 -4.773438 0.90625 -4.890625 C 0.90625 -4.992188 1.007812 -5.132812 1.21875 -5.3125 C 1.4375 -5.488281 1.6875 -5.664062 1.96875 -5.84375 C 2.257812 -6.03125 2.5625 -6.1875 2.875 -6.3125 C 3.1875 -6.445312 3.441406 -6.515625 3.640625 -6.515625 C 3.898438 -6.515625 4.128906 -6.457031 4.328125 -6.34375 C 4.535156 -6.238281 4.640625 -5.984375 4.640625 -5.578125 C 4.640625 -5.171875 4.414062 -4.660156 3.96875 -4.046875 C 3.53125 -3.429688 3.035156 -2.78125 2.484375 -2.09375 C 4.140625 -3.09375 5.832031 -4.097656 7.5625 -5.109375 C 8.425781 -5.617188 9.0625 -5.875 9.46875 -5.875 C 10.09375 -5.875 10.40625 -5.644531 10.40625 -5.1875 C 10.40625 -4.851562 10.019531 -4.253906 9.25 -3.390625 C 8.789062 -2.878906 8.414062 -2.441406 8.125 -2.078125 C 7.84375 -1.722656 7.628906 -1.414062 7.484375 -1.15625 C 11.015625 -3.289062 13.257812 -4.585938 14.21875 -5.046875 C 14.84375 -5.359375 15.382812 -5.597656 15.84375 -5.765625 C 16.300781 -5.929688 16.695312 -6.015625 17.03125 -6.015625 C 17.195312 -6.015625 17.28125 -5.867188 17.28125 -5.578125 C 17.207031 -5.460938 17.125 -5.332031 17.03125 -5.1875 C 16.9375 -5.0625 16.832031 -4.898438 16.71875 -4.703125 C 16.613281 -4.515625 16.476562 -4.289062 16.3125 -4.03125 C 15.6875 -3.050781 15.375 -2.25 15.375 -1.625 C 15.375 -0.664062 15.816406 -0.1875 16.703125 -0.1875 C 17.035156 -0.1875 17.367188 -0.210938 17.703125 -0.265625 C 18.046875 -0.328125 18.472656 -0.453125 18.984375 -0.640625 C 19.503906 -0.835938 20.15625 -1.109375 20.9375 -1.453125 C 21.71875 -1.804688 22.71875 -2.28125 23.9375 -2.875 C 23.988281 -2.90625 24.054688 -2.921875 24.140625 -2.921875 C 24.222656 -2.921875 24.289062 -2.847656 24.34375 -2.703125 Z M 24.34375 -2.703125 "/></g></g></g><g fill="#000000" fill-opacity="1"><g transform="translate(191.65874, 187.903303)"><g><path d="M 14.96875 -3.0625 C 15.019531 -2.863281 14.972656 -2.726562 14.828125 -2.65625 C 13.171875 -1.625 11.582031 -0.742188 10.0625 -0.015625 C 8.539062 0.710938 7.210938 1.078125 6.078125 1.078125 C 4.785156 1.078125 4.101562 0.101562 4.03125 -1.84375 C 3.8125 -1.71875 3.476562 -1.53125 3.03125 -1.28125 C 2.59375 -1.03125 2.128906 -0.769531 1.640625 -0.5 C 1.148438 -0.238281 0.65625 -0.0078125 0.15625 0.1875 C -0.332031 0.394531 -0.734375 0.515625 -1.046875 0.546875 C -1.503906 0.585938 -1.914062 0.523438 -2.28125 0.359375 C -2.65625 0.191406 -2.890625 -0.15625 -2.984375 -0.6875 C -2.984375 -1.738281 -2 -3.035156 -0.03125 -4.578125 C 0.96875 -5.316406 1.925781 -5.878906 2.84375 -6.265625 C 3.757812 -6.648438 4.523438 -6.84375 5.140625 -6.84375 C 6.035156 -6.863281 6.492188 -6.644531 6.515625 -6.1875 C 6.515625 -5.757812 6.359375 -5.410156 6.046875 -5.140625 C 5.804688 -4.929688 5.503906 -4.828125 5.140625 -4.828125 C 5.117188 -4.847656 5.097656 -4.894531 5.078125 -4.96875 C 5.054688 -5.019531 5.03125 -5.070312 5 -5.125 C 4.976562 -5.1875 4.941406 -5.265625 4.890625 -5.359375 C 4.753906 -5.722656 4.46875 -5.914062 4.03125 -5.9375 C 3.09375 -5.9375 2 -5.410156 0.75 -4.359375 C -0.445312 -3.347656 -1.046875 -2.4375 -1.046875 -1.625 C -1.046875 -1.425781 -1.007812 -1.25 -0.9375 -1.09375 C -0.863281 -0.9375 -0.734375 -0.847656 -0.546875 -0.828125 C 0.128906 -0.773438 0.796875 -0.878906 1.453125 -1.140625 C 2.117188 -1.410156 2.820312 -1.796875 3.5625 -2.296875 C 3.875 -2.515625 4.414062 -3.046875 5.1875 -3.890625 C 5.664062 -4.460938 6.082031 -4.738281 6.4375 -4.71875 C 6.726562 -4.71875 6.875 -4.597656 6.875 -4.359375 C 6.875 -4.140625 6.671875 -3.671875 6.265625 -2.953125 C 5.878906 -2.273438 5.6875 -1.78125 5.6875 -1.46875 C 5.6875 -0.582031 6.117188 -0.128906 6.984375 -0.109375 C 7.753906 -0.109375 8.523438 -0.226562 9.296875 -0.46875 C 10.078125 -0.707031 10.800781 -0.992188 11.46875 -1.328125 C 12.144531 -1.671875 12.742188 -2.007812 13.265625 -2.34375 C 13.785156 -2.675781 14.164062 -2.925781 14.40625 -3.09375 C 14.519531 -3.144531 14.628906 -3.1875 14.734375 -3.21875 C 14.847656 -3.257812 14.925781 -3.207031 14.96875 -3.0625 Z M 14.96875 -3.0625 "/></g></g></g><g fill="#000000" fill-opacity="1"><g transform="translate(207.49877, 187.903303)"><g/></g></g><g fill="#000000" fill-opacity="1"><g transform="translate(216.066789, 187.903303)"><g><path d="M 22.109375 -23.71875 C 22.109375 -22.6875 20.976562 -20.863281 18.71875 -18.25 C 14.613281 -13.445312 10.472656 -9.835938 6.296875 -7.421875 C 5.578125 -6.941406 4.773438 -6.472656 3.890625 -6.015625 C 3.003906 -5.554688 1.972656 -5.0625 0.796875 -4.53125 C 0.453125 -4.144531 0.148438 -3.765625 -0.109375 -3.390625 C -0.347656 -3.046875 -0.554688 -2.707031 -0.734375 -2.375 C -0.921875 -2.039062 -1.015625 -1.738281 -1.015625 -1.46875 C -1.015625 -0.875 -0.921875 -0.484375 -0.734375 -0.296875 C -0.554688 -0.117188 -0.265625 -0.03125 0.140625 -0.03125 C 0.378906 -0.03125 0.6875 -0.0859375 1.0625 -0.203125 C 1.4375 -0.328125 1.84375 -0.546875 2.28125 -0.859375 C 2.726562 -1.171875 3.210938 -1.578125 3.734375 -2.078125 C 4.265625 -2.585938 4.820312 -3.238281 5.40625 -4.03125 C 5.539062 -4.320312 5.660156 -4.609375 5.765625 -4.890625 C 5.878906 -5.179688 6.003906 -5.441406 6.140625 -5.671875 C 6.273438 -5.898438 6.414062 -6.082031 6.5625 -6.21875 C 6.71875 -6.363281 6.914062 -6.4375 7.15625 -6.4375 C 7.570312 -6.4375 7.78125 -6.222656 7.78125 -5.796875 C 7.78125 -5.554688 7.710938 -5.34375 7.578125 -5.15625 C 7.441406 -4.976562 7.289062 -4.816406 7.125 -4.671875 C 6.957031 -4.535156 6.789062 -4.40625 6.625 -4.28125 C 6.457031 -4.164062 6.335938 -4.046875 6.265625 -3.921875 C 6.140625 -3.734375 6.078125 -3.300781 6.078125 -2.625 C 6.078125 -2.289062 6.191406 -1.929688 6.421875 -1.546875 C 6.648438 -1.160156 7.078125 -0.96875 7.703125 -0.96875 C 8.085938 -0.96875 8.726562 -1.144531 9.625 -1.5 C 10.53125 -1.863281 11.59375 -2.492188 12.8125 -3.390625 L 12.921875 -2.921875 C 12.421875 -2.578125 11.90625 -2.238281 11.375 -1.90625 C 10.84375 -1.570312 10.328125 -1.273438 9.828125 -1.015625 C 9.328125 -0.765625 8.84375 -0.5625 8.375 -0.40625 C 7.90625 -0.257812 7.476562 -0.1875 7.09375 -0.1875 C 6.375 -0.1875 5.894531 -0.460938 5.65625 -1.015625 C 5.414062 -1.566406 5.34375 -2.210938 5.4375 -2.953125 C 5.175781 -2.566406 4.800781 -2.132812 4.3125 -1.65625 C 3.832031 -1.175781 3.304688 -0.71875 2.734375 -0.28125 C 2.160156 0.144531 1.566406 0.507812 0.953125 0.8125 C 0.335938 1.113281 -0.242188 1.265625 -0.796875 1.265625 C -0.960938 1.265625 -1.144531 1.238281 -1.34375 1.1875 C -1.550781 1.132812 -1.738281 1.054688 -1.90625 0.953125 C -2.070312 0.847656 -2.207031 0.703125 -2.3125 0.515625 C -2.425781 0.335938 -2.484375 0.101562 -2.484375 -0.1875 C -2.484375 -0.425781 -2.4375 -0.71875 -2.34375 -1.0625 C -2.25 -1.40625 -2.066406 -1.796875 -1.796875 -2.234375 C -1.148438 -3.335938 -0.351562 -4.539062 0.59375 -5.84375 C 1.539062 -7.15625 2.566406 -8.5 3.671875 -9.875 C 4.773438 -11.257812 5.921875 -12.644531 7.109375 -14.03125 C 8.296875 -15.425781 9.453125 -16.757812 10.578125 -18.03125 C 12.835938 -20.582031 14.78125 -22.46875 16.40625 -23.6875 C 18.039062 -24.914062 19.269531 -25.53125 20.09375 -25.53125 C 20.851562 -25.53125 21.378906 -25.375 21.671875 -25.0625 C 21.960938 -24.75 22.109375 -24.300781 22.109375 -23.71875 Z M 20.484375 -23.328125 C 20.484375 -24.023438 20.085938 -24.375 19.296875 -24.375 C 18.304688 -24.375 16.832031 -23.484375 14.875 -21.703125 C 13.738281 -20.523438 11.925781 -18.5 9.4375 -15.625 C 8.164062 -14.113281 7.097656 -12.847656 6.234375 -11.828125 C 5.367188 -10.804688 4.695312 -9.992188 4.21875 -9.390625 C 3.800781 -8.910156 3.429688 -8.441406 3.109375 -7.984375 C 2.785156 -7.535156 2.492188 -7.128906 2.234375 -6.765625 C 1.941406 -6.335938 1.675781 -5.941406 1.4375 -5.578125 C 1.988281 -5.671875 2.816406 -6.023438 3.921875 -6.640625 C 5.023438 -7.253906 6.367188 -8.148438 7.953125 -9.328125 C 9.566406 -10.503906 11.0625 -11.691406 12.4375 -12.890625 C 13.820312 -14.085938 15.125 -15.320312 16.34375 -16.59375 C 17.707031 -18.0625 18.738281 -19.359375 19.4375 -20.484375 C 20.132812 -21.609375 20.484375 -22.554688 20.484375 -23.328125 Z M 20.484375 -23.328125 "/></g></g></g><g fill="#000000" fill-opacity="1"><g transform="translate(229.710813, 187.903303)"><g><path d="M 18.390625 -5.90625 C 18.390625 -5.757812 18.34375 -5.628906 18.25 -5.515625 C 15.925781 -3.585938 14.296875 -2.3125 13.359375 -1.6875 C 11.171875 -0.195312 9.285156 0.546875 7.703125 0.546875 C 6.335938 0.546875 5.65625 -0.175781 5.65625 -1.625 C 5.65625 -1.882812 5.679688 -2.210938 5.734375 -2.609375 C 5.796875 -3.003906 5.898438 -3.476562 6.046875 -4.03125 C 5.140625 -3.5 4.210938 -2.953125 3.265625 -2.390625 C 2.316406 -1.828125 1.335938 -1.210938 0.328125 -0.546875 C -1.085938 0.390625 -1.859375 0.859375 -1.984375 0.859375 C -2.003906 0.859375 -2.097656 0.8125 -2.265625 0.71875 C -2.410156 0.644531 -2.484375 0.5625 -2.484375 0.46875 C -2.484375 0.300781 -2.378906 0.0234375 -2.171875 -0.359375 C -1.972656 -0.742188 -1.632812 -1.269531 -1.15625 -1.9375 C -0.644531 -2.6875 -0.242188 -3.28125 0.046875 -3.71875 C 0.347656 -4.164062 0.5625 -4.488281 0.6875 -4.6875 C 0.59375 -4.820312 0.546875 -5.023438 0.546875 -5.296875 C 0.546875 -5.484375 0.703125 -5.6875 1.015625 -5.90625 C 1.347656 -6.09375 1.609375 -6.203125 1.796875 -6.234375 C 2.617188 -6.234375 3.03125 -5.921875 3.03125 -5.296875 C 3.03125 -5.128906 2.644531 -4.515625 1.875 -3.453125 C 1.507812 -2.992188 1.203125 -2.609375 0.953125 -2.296875 C 0.703125 -1.992188 0.476562 -1.742188 0.28125 -1.546875 C 4.84375 -4.671875 7.785156 -6.234375 9.109375 -6.234375 C 9.222656 -6.234375 9.316406 -6.078125 9.390625 -5.765625 C 9.390625 -5.710938 9.019531 -5.265625 8.28125 -4.421875 C 7.945312 -3.992188 7.679688 -3.582031 7.484375 -3.1875 C 7.296875 -2.789062 7.203125 -2.390625 7.203125 -1.984375 C 7.203125 -1.085938 7.8125 -0.640625 9.03125 -0.640625 C 9.945312 -0.640625 11.472656 -1.363281 13.609375 -2.8125 C 14.015625 -3.050781 15.476562 -4.128906 18 -6.046875 C 18.070312 -6.066406 18.15625 -6.078125 18.25 -6.078125 C 18.320312 -6.078125 18.367188 -6.019531 18.390625 -5.90625 Z M 18.390625 -5.90625 "/></g></g></g><g fill="#000000" fill-opacity="1"><g transform="translate(246.558849, 187.903303)"><g><path d="M 9.5 -5.109375 C 9.5 -4.890625 8.71875 -3.976562 7.15625 -2.375 C 5.71875 -0.9375 4.523438 0.257812 3.578125 1.21875 C 2.628906 2.175781 1.90625 2.921875 1.40625 3.453125 C -0.0078125 4.921875 -1.34375 6.382812 -2.59375 7.84375 C -3.84375 9.3125 -5.039062 10.773438 -6.1875 12.234375 C -6.664062 12.890625 -7.019531 13.441406 -7.25 13.890625 C -7.476562 14.347656 -7.617188 14.695312 -7.671875 14.9375 C -7.671875 15.007812 -7.65625 15.085938 -7.625 15.171875 C -7.601562 15.253906 -7.582031 15.367188 -7.5625 15.515625 C -7.539062 15.660156 -7.53125 15.785156 -7.53125 15.890625 C -7.53125 16.003906 -7.53125 16.082031 -7.53125 16.125 C -7.8125 16.894531 -8.375 17.304688 -9.21875 17.359375 C -9.257812 17.066406 -9.289062 16.816406 -9.3125 16.609375 C -9.34375 16.410156 -9.367188 16.210938 -9.390625 16.015625 C -9.390625 14.867188 -8.71875 13.570312 -7.375 12.125 L 4.609375 -1.109375 C 2.566406 0.203125 0.984375 0.859375 -0.140625 0.859375 C -1.273438 0.859375 -1.84375 0.269531 -1.84375 -0.90625 C -1.84375 -1.832031 -1.457031 -2.9375 -0.6875 -4.21875 C 0.0820312 -5.269531 0.71875 -5.914062 1.21875 -6.15625 C 1.601562 -6.175781 1.820312 -6.054688 1.875 -5.796875 C 1.820312 -5.742188 1.707031 -5.617188 1.53125 -5.421875 C 1.351562 -5.234375 1.046875 -4.890625 0.609375 -4.390625 C -0.179688 -3.429688 -0.613281 -2.484375 -0.6875 -1.546875 C -0.6875 -0.804688 -0.0507812 -0.410156 1.21875 -0.359375 C 2.175781 -0.359375 3.664062 -1.1875 5.6875 -2.84375 C 7.675781 -4.476562 8.816406 -5.304688 9.109375 -5.328125 C 9.347656 -5.328125 9.476562 -5.253906 9.5 -5.109375 Z M 9.5 -5.109375 "/></g></g></g><g fill="#000000" fill-opacity="1"><g transform="translate(259.050875, 187.903303)"><g><path d="M 24.34375 -2.703125 C 24.363281 -2.628906 24.351562 -2.550781 24.3125 -2.46875 C 24.28125 -2.382812 24.226562 -2.34375 24.15625 -2.34375 C 22.957031 -1.71875 21.941406 -1.207031 21.109375 -0.8125 C 20.285156 -0.414062 19.566406 -0.0976562 18.953125 0.140625 C 18.335938 0.378906 17.796875 0.546875 17.328125 0.640625 C 16.859375 0.742188 16.382812 0.796875 15.90625 0.796875 C 14.488281 0.796875 13.78125 0.125 13.78125 -1.21875 C 13.78125 -1.695312 13.835938 -2.164062 13.953125 -2.625 C 14.078125 -3.082031 14.273438 -3.550781 14.546875 -4.03125 C 14.378906 -4.03125 14.128906 -3.945312 13.796875 -3.78125 C 13.472656 -3.613281 13.160156 -3.445312 12.859375 -3.28125 C 11.722656 -2.769531 10.691406 -2.195312 9.765625 -1.5625 C 8.847656 -0.925781 8.066406 -0.414062 7.421875 -0.03125 C 6.285156 0.59375 5.597656 0.90625 5.359375 0.90625 C 4.878906 0.90625 4.640625 0.6875 4.640625 0.25 C 4.640625 -0.132812 4.960938 -0.757812 5.609375 -1.625 L 8.03125 -4.5 C 5.269531 -2.769531 3.15625 -1.472656 1.6875 -0.609375 C 0.226562 0.253906 -0.570312 0.695312 -0.71875 0.71875 C -1.101562 0.71875 -1.296875 0.5625 -1.296875 0.25 C -1.148438 0.101562 -0.984375 -0.0859375 -0.796875 -0.328125 C -0.628906 -0.515625 -0.414062 -0.742188 -0.15625 -1.015625 C 0.09375 -1.296875 0.382812 -1.617188 0.71875 -1.984375 C 1.414062 -2.722656 1.9375 -3.332031 2.28125 -3.8125 C 2.632812 -4.289062 2.8125 -4.664062 2.8125 -4.9375 C 2.8125 -5.03125 2.722656 -5.078125 2.546875 -5.078125 C 2.378906 -5.078125 2.226562 -5.050781 2.09375 -5 C 1.925781 -4.957031 1.742188 -4.898438 1.546875 -4.828125 C 1.359375 -4.753906 1.210938 -4.71875 1.109375 -4.71875 C 0.972656 -4.71875 0.90625 -4.773438 0.90625 -4.890625 C 0.90625 -4.992188 1.007812 -5.132812 1.21875 -5.3125 C 1.4375 -5.488281 1.6875 -5.664062 1.96875 -5.84375 C 2.257812 -6.03125 2.5625 -6.1875 2.875 -6.3125 C 3.1875 -6.445312 3.441406 -6.515625 3.640625 -6.515625 C 3.898438 -6.515625 4.128906 -6.457031 4.328125 -6.34375 C 4.535156 -6.238281 4.640625 -5.984375 4.640625 -5.578125 C 4.640625 -5.171875 4.414062 -4.660156 3.96875 -4.046875 C 3.53125 -3.429688 3.035156 -2.78125 2.484375 -2.09375 C 4.140625 -3.09375 5.832031 -4.097656 7.5625 -5.109375 C 8.425781 -5.617188 9.0625 -5.875 9.46875 -5.875 C 10.09375 -5.875 10.40625 -5.644531 10.40625 -5.1875 C 10.40625 -4.851562 10.019531 -4.253906 9.25 -3.390625 C 8.789062 -2.878906 8.414062 -2.441406 8.125 -2.078125 C 7.84375 -1.722656 7.628906 -1.414062 7.484375 -1.15625 C 11.015625 -3.289062 13.257812 -4.585938 14.21875 -5.046875 C 14.84375 -5.359375 15.382812 -5.597656 15.84375 -5.765625 C 16.300781 -5.929688 16.695312 -6.015625 17.03125 -6.015625 C 17.195312 -6.015625 17.28125 -5.867188 17.28125 -5.578125 C 17.207031 -5.460938 17.125 -5.332031 17.03125 -5.1875 C 16.9375 -5.0625 16.832031 -4.898438 16.71875 -4.703125 C 16.613281 -4.515625 16.476562 -4.289062 16.3125 -4.03125 C 15.6875 -3.050781 15.375 -2.25 15.375 -1.625 C 15.375 -0.664062 15.816406 -0.1875 16.703125 -0.1875 C 17.035156 -0.1875 17.367188 -0.210938 17.703125 -0.265625 C 18.046875 -0.328125 18.472656 -0.453125 18.984375 -0.640625 C 19.503906 -0.835938 20.15625 -1.109375 20.9375 -1.453125 C 21.71875 -1.804688 22.71875 -2.28125 23.9375 -2.875 C 23.988281 -2.90625 24.054688 -2.921875 24.140625 -2.921875 C 24.222656 -2.921875 24.289062 -2.847656 24.34375 -2.703125 Z M 24.34375 -2.703125 "/></g></g></g><g fill="#000000" fill-opacity="1"><g transform="translate(283.998926, 187.903303)"><g><path d="M 8.3125 -13.140625 C 8.3125 -13.117188 5.78125 -10.210938 0.71875 -4.421875 C 1.175781 -4.660156 1.628906 -4.898438 2.078125 -5.140625 C 2.535156 -5.390625 3.003906 -5.644531 3.484375 -5.90625 C 4.640625 -6.40625 5.6875 -6.671875 6.625 -6.703125 C 7.632812 -6.703125 8.175781 -6.253906 8.25 -5.359375 C 8.25 -4.785156 7.765625 -3.984375 6.796875 -2.953125 C 6.347656 -2.472656 5.847656 -2.035156 5.296875 -1.640625 C 4.742188 -1.242188 4.117188 -0.84375 3.421875 -0.4375 C 2.023438 0.28125 0.910156 0.65625 0.078125 0.6875 C -0.117188 0.6875 -0.273438 0.648438 -0.390625 0.578125 C -0.515625 0.503906 -0.632812 0.40625 -0.75 0.28125 C -0.96875 0.0703125 -1.078125 -0.203125 -1.078125 -0.546875 C -1.078125 -1.210938 -0.847656 -1.570312 -0.390625 -1.625 C -0.148438 -1.625 0.00390625 -1.550781 0.078125 -1.40625 C 0.148438 -1.3125 0.242188 -1.144531 0.359375 -0.90625 C 0.523438 -0.539062 0.894531 -0.359375 1.46875 -0.359375 C 2.21875 -0.359375 3.273438 -0.9375 4.640625 -2.09375 C 6.035156 -3.164062 6.734375 -4.125 6.734375 -4.96875 C 6.734375 -5.351562 6.300781 -5.582031 5.4375 -5.65625 C 4.625 -5.65625 3.796875 -5.390625 2.953125 -4.859375 C 2.617188 -4.640625 2.117188 -4.265625 1.453125 -3.734375 C 0.796875 -3.210938 -0.0234375 -2.53125 -1.015625 -1.6875 C -2.253906 -0.632812 -3.535156 0.613281 -4.859375 2.0625 C -6.179688 3.519531 -7.5625 5.207031 -9 7.125 C -11.445312 10.53125 -12.78125 12.71875 -13 13.6875 L -13 14.96875 C -13 15.3125 -13.117188 15.554688 -13.359375 15.703125 C -13.546875 15.835938 -13.773438 15.929688 -14.046875 15.984375 C -14.179688 15.984375 -14.316406 15.96875 -14.453125 15.9375 C -14.585938 15.914062 -14.710938 15.859375 -14.828125 15.765625 C -15.066406 15.648438 -15.222656 15.445312 -15.296875 15.15625 C -15.296875 14.726562 -15.140625 14.34375 -14.828125 14 C -14.566406 13.519531 -14.359375 13.164062 -14.203125 12.9375 C -14.046875 12.707031 -13.957031 12.570312 -13.9375 12.53125 C -13.164062 11.113281 -12.046875 9.429688 -10.578125 7.484375 C -9.117188 5.546875 -7.296875 3.300781 -5.109375 0.75 C -4.078125 -0.46875 -2.546875 -2.21875 -0.515625 -4.5 C 1.503906 -6.78125 4.085938 -9.625 7.234375 -13.03125 C 7.546875 -13.34375 7.8125 -13.507812 8.03125 -13.53125 C 8.144531 -13.53125 8.238281 -13.398438 8.3125 -13.140625 Z M 8.3125 -13.140625 "/></g></g></g><g fill="#000000" fill-opacity="1"><g transform="translate(295.950951, 187.903303)"><g><path d="M 14.96875 -3.0625 C 15.070312 -3.101562 15.164062 -3.15625 15.25 -3.21875 C 15.332031 -3.28125 15.394531 -3.238281 15.4375 -3.09375 C 15.507812 -2.925781 15.453125 -2.769531 15.265625 -2.625 C 13.535156 -1.332031 11.90625 -0.335938 10.375 0.359375 C 8.851562 1.054688 7.472656 1.40625 6.234375 1.40625 C 5.441406 1.40625 4.816406 1.132812 4.359375 0.59375 C 3.898438 0.0507812 3.71875 -0.707031 3.8125 -1.6875 C 3.53125 -1.425781 3.175781 -1.148438 2.75 -0.859375 C 2.332031 -0.578125 1.898438 -0.300781 1.453125 -0.03125 C 1.015625 0.226562 0.578125 0.441406 0.140625 0.609375 C -0.285156 0.773438 -0.671875 0.859375 -1.015625 0.859375 C -1.390625 0.859375 -1.742188 0.734375 -2.078125 0.484375 C -2.421875 0.234375 -2.59375 -0.164062 -2.59375 -0.71875 C -2.613281 -1.53125 -2.253906 -2.332031 -1.515625 -3.125 C -1.179688 -3.488281 -0.664062 -3.925781 0.03125 -4.4375 C 0.726562 -4.957031 1.617188 -5.566406 2.703125 -6.265625 C 2.847656 -6.265625 2.941406 -6.207031 2.984375 -6.09375 C 3.035156 -5.988281 3.023438 -5.863281 2.953125 -5.71875 C 2.640625 -5.53125 2.328125 -5.328125 2.015625 -5.109375 C 1.703125 -4.890625 1.378906 -4.648438 1.046875 -4.390625 C 0.441406 -3.890625 0.00390625 -3.414062 -0.265625 -2.96875 C -0.546875 -2.519531 -0.707031 -2.09375 -0.75 -1.6875 C -0.820312 -0.96875 -0.597656 -0.550781 -0.078125 -0.4375 C 0.359375 -0.332031 0.859375 -0.441406 1.421875 -0.765625 C 1.984375 -1.097656 2.625 -1.550781 3.34375 -2.125 C 3.613281 -2.34375 3.945312 -2.664062 4.34375 -3.09375 C 4.738281 -3.53125 5.210938 -4.117188 5.765625 -4.859375 C 6.597656 -5.960938 7.207031 -6.515625 7.59375 -6.515625 C 7.90625 -6.515625 8.070312 -6.382812 8.09375 -6.125 C 8.09375 -5.851562 7.640625 -5.300781 6.734375 -4.46875 C 5.867188 -3.644531 5.4375 -2.945312 5.4375 -2.375 C 5.4375 -1.320312 5.644531 -0.613281 6.0625 -0.25 C 6.488281 0.101562 7.082031 0.28125 7.84375 0.28125 C 8.425781 0.28125 9.0625 0.15625 9.75 -0.09375 C 10.445312 -0.34375 11.191406 -0.671875 11.984375 -1.078125 C 12.390625 -1.296875 12.867188 -1.5625 13.421875 -1.875 C 13.972656 -2.1875 14.488281 -2.582031 14.96875 -3.0625 Z M 14.96875 -3.0625 "/></g></g></g><g fill="#000000" fill-opacity="1"><g transform="translate(167.979509, 232.923736)"><g><path d="M 7.65625 -9.15625 C 7.59375 -8.539062 7.5625 -7.988281 7.5625 -7.5 C 7.5625 -7.070312 7.578125 -6.71875 7.609375 -6.4375 L 7.3125 -6.4375 C 7.238281 -7.101562 7.148438 -7.597656 7.046875 -7.921875 C 6.941406 -8.242188 6.757812 -8.476562 6.5 -8.625 C 6.25 -8.78125 5.851562 -8.859375 5.3125 -8.859375 L 4.625 -8.859375 L 4.625 -1.5 C 4.625 -1.132812 4.65625 -0.867188 4.71875 -0.703125 C 4.789062 -0.546875 4.910156 -0.4375 5.078125 -0.375 C 5.253906 -0.3125 5.535156 -0.273438 5.921875 -0.265625 L 5.921875 0 C 5.472656 -0.0195312 4.84375 -0.03125 4.03125 -0.03125 C 3.164062 -0.03125 2.523438 -0.0195312 2.109375 0 L 2.109375 -0.265625 C 2.492188 -0.273438 2.769531 -0.3125 2.9375 -0.375 C 3.113281 -0.4375 3.238281 -0.546875 3.3125 -0.703125 C 3.382812 -0.867188 3.421875 -1.132812 3.421875 -1.5 L 3.421875 -8.859375 L 2.71875 -8.859375 C 2.1875 -8.859375 1.789062 -8.78125 1.53125 -8.625 C 1.269531 -8.476562 1.085938 -8.242188 0.984375 -7.921875 C 0.878906 -7.597656 0.789062 -7.101562 0.71875 -6.4375 L 0.421875 -6.4375 C 0.453125 -6.71875 0.46875 -7.070312 0.46875 -7.5 C 0.46875 -7.988281 0.4375 -8.539062 0.375 -9.15625 C 1.09375 -9.132812 2.3125 -9.125 4.03125 -9.125 C 5.726562 -9.125 6.9375 -9.132812 7.65625 -9.15625 Z M 7.65625 -9.15625 "/></g></g></g><g fill="#000000" fill-opacity="1"><g transform="translate(178.330281, 232.923736)"><g><path d="M 7.171875 -1.65625 C 7.171875 -1.164062 7.203125 -0.613281 7.265625 0 C 6.671875 -0.0195312 5.679688 -0.03125 4.296875 -0.03125 C 2.640625 -0.03125 1.390625 -0.0195312 0.546875 0 L 0.546875 -0.265625 C 0.859375 -0.273438 1.082031 -0.304688 1.21875 -0.359375 C 1.363281 -0.410156 1.460938 -0.507812 1.515625 -0.65625 C 1.566406 -0.800781 1.59375 -1.039062 1.59375 -1.375 L 1.59375 -7.78125 C 1.59375 -8.113281 1.566406 -8.351562 1.515625 -8.5 C 1.460938 -8.644531 1.363281 -8.742188 1.21875 -8.796875 C 1.082031 -8.847656 0.859375 -8.882812 0.546875 -8.90625 L 0.546875 -9.15625 C 1.390625 -9.132812 2.640625 -9.125 4.296875 -9.125 C 5.566406 -9.125 6.46875 -9.132812 7 -9.15625 C 6.9375 -8.59375 6.90625 -8.085938 6.90625 -7.640625 C 6.90625 -7.296875 6.921875 -7.023438 6.953125 -6.828125 L 6.65625 -6.828125 C 6.59375 -7.390625 6.515625 -7.804688 6.421875 -8.078125 C 6.328125 -8.347656 6.164062 -8.546875 5.9375 -8.671875 C 5.71875 -8.796875 5.378906 -8.859375 4.921875 -8.859375 L 3.84375 -8.859375 C 3.53125 -8.859375 3.300781 -8.832031 3.15625 -8.78125 C 3.019531 -8.738281 2.925781 -8.644531 2.875 -8.5 C 2.820312 -8.351562 2.796875 -8.113281 2.796875 -7.78125 L 2.796875 -4.734375 L 3.640625 -4.734375 C 3.941406 -4.734375 4.175781 -4.800781 4.34375 -4.9375 C 4.507812 -5.082031 4.617188 -5.253906 4.671875 -5.453125 C 4.734375 -5.648438 4.78125 -5.894531 4.8125 -6.1875 L 4.859375 -6.4375 L 5.15625 -6.4375 C 5.125 -6.082031 5.109375 -5.679688 5.109375 -5.234375 L 5.109375 -4.609375 C 5.109375 -4.171875 5.132812 -3.554688 5.1875 -2.765625 L 4.890625 -2.765625 C 4.878906 -2.828125 4.851562 -3.035156 4.8125 -3.390625 C 4.769531 -3.753906 4.648438 -4.023438 4.453125 -4.203125 C 4.265625 -4.378906 3.992188 -4.46875 3.640625 -4.46875 L 2.796875 -4.46875 L 2.796875 -1.375 C 2.796875 -1.039062 2.820312 -0.800781 2.875 -0.65625 C 2.925781 -0.507812 3.019531 -0.410156 3.15625 -0.359375 C 3.300781 -0.316406 3.53125 -0.296875 3.84375 -0.296875 L 4.78125 -0.296875 C 5.320312 -0.296875 5.734375 -0.363281 6.015625 -0.5 C 6.296875 -0.644531 6.5 -0.875 6.625 -1.1875 C 6.75 -1.507812 6.84375 -1.976562 6.90625 -2.59375 L 7.203125 -2.59375 C 7.179688 -2.351562 7.171875 -2.039062 7.171875 -1.65625 Z M 7.171875 -1.65625 "/></g></g></g><g fill="#000000" fill-opacity="1"><g transform="translate(188.525802, 232.923736)"><g><path d="M 3.984375 -5.453125 C 4.992188 -5.453125 5.765625 -5.203125 6.296875 -4.703125 C 6.835938 -4.203125 7.109375 -3.546875 7.109375 -2.734375 C 7.109375 -1.953125 6.84375 -1.300781 6.3125 -0.78125 C 5.789062 -0.257812 4.921875 0 3.703125 0 L 3.140625 -0.015625 C 2.773438 -0.0234375 2.414062 -0.03125 2.0625 -0.03125 C 1.414062 -0.03125 0.910156 -0.0195312 0.546875 0 L 0.546875 -0.265625 C 0.859375 -0.273438 1.082031 -0.304688 1.21875 -0.359375 C 1.363281 -0.410156 1.460938 -0.507812 1.515625 -0.65625 C 1.566406 -0.800781 1.59375 -1.039062 1.59375 -1.375 L 1.59375 -7.78125 C 1.59375 -8.113281 1.566406 -8.351562 1.515625 -8.5 C 1.460938 -8.644531 1.363281 -8.742188 1.21875 -8.796875 C 1.082031 -8.847656 0.859375 -8.882812 0.546875 -8.90625 L 0.546875 -9.15625 C 1.390625 -9.132812 2.640625 -9.125 4.296875 -9.125 C 5.378906 -9.125 6.148438 -9.132812 6.609375 -9.15625 C 6.546875 -8.59375 6.515625 -8.085938 6.515625 -7.640625 C 6.515625 -7.296875 6.53125 -7.023438 6.5625 -6.828125 L 6.265625 -6.828125 C 6.203125 -7.390625 6.125 -7.804688 6.03125 -8.078125 C 5.9375 -8.347656 5.773438 -8.546875 5.546875 -8.671875 C 5.328125 -8.796875 4.988281 -8.859375 4.53125 -8.859375 L 3.84375 -8.859375 C 3.53125 -8.859375 3.300781 -8.832031 3.15625 -8.78125 C 3.019531 -8.738281 2.925781 -8.644531 2.875 -8.5 C 2.820312 -8.351562 2.796875 -8.113281 2.796875 -7.78125 L 2.796875 -5.421875 Z M 3.65625 -0.265625 C 4.476562 -0.265625 5.039062 -0.476562 5.34375 -0.90625 C 5.65625 -1.332031 5.8125 -1.9375 5.8125 -2.71875 C 5.8125 -3.59375 5.640625 -4.222656 5.296875 -4.609375 C 4.953125 -5.003906 4.367188 -5.203125 3.546875 -5.203125 C 3.242188 -5.203125 2.992188 -5.195312 2.796875 -5.1875 L 2.796875 -1.375 C 2.796875 -1.050781 2.816406 -0.8125 2.859375 -0.65625 C 2.898438 -0.5 2.976562 -0.394531 3.09375 -0.34375 C 3.207031 -0.289062 3.394531 -0.265625 3.65625 -0.265625 Z M 3.65625 -0.265625 "/></g></g></g><g fill="#000000" fill-opacity="1"><g transform="translate(198.55313, 232.923736)"><g><path d="M 7.90625 -8.90625 C 7.59375 -8.882812 7.363281 -8.847656 7.21875 -8.796875 C 7.082031 -8.742188 6.988281 -8.644531 6.9375 -8.5 C 6.882812 -8.351562 6.859375 -8.113281 6.859375 -7.78125 L 6.859375 -1.375 C 6.859375 -1.039062 6.882812 -0.800781 6.9375 -0.65625 C 6.988281 -0.507812 7.082031 -0.410156 7.21875 -0.359375 C 7.363281 -0.304688 7.59375 -0.273438 7.90625 -0.265625 L 7.90625 0 C 7.539062 -0.0195312 6.988281 -0.03125 6.25 -0.03125 C 5.5625 -0.03125 5.015625 -0.0195312 4.609375 0 L 4.609375 -0.265625 C 4.921875 -0.273438 5.144531 -0.304688 5.28125 -0.359375 C 5.425781 -0.410156 5.523438 -0.507812 5.578125 -0.65625 C 5.628906 -0.800781 5.65625 -1.039062 5.65625 -1.375 L 5.65625 -4.34375 L 4.359375 -4.34375 C 4.035156 -4.34375 3.78125 -4.269531 3.59375 -4.125 C 3.414062 -3.976562 3.28125 -3.785156 3.1875 -3.546875 C 3.09375 -3.304688 2.992188 -2.960938 2.890625 -2.515625 L 2.609375 -1.21875 C 2.492188 -0.695312 2.320312 -0.332031 2.09375 -0.125 C 1.875 0.0820312 1.585938 0.1875 1.234375 0.1875 C 0.898438 0.1875 0.632812 0.125 0.4375 0 C 0.238281 -0.132812 0.0390625 -0.347656 -0.15625 -0.640625 L 0.03125 -0.796875 C 0.164062 -0.617188 0.28125 -0.488281 0.375 -0.40625 C 0.476562 -0.332031 0.601562 -0.296875 0.75 -0.296875 C 0.914062 -0.296875 1.039062 -0.367188 1.125 -0.515625 C 1.207031 -0.671875 1.296875 -0.953125 1.390625 -1.359375 L 1.6875 -2.671875 C 1.800781 -3.222656 1.992188 -3.625 2.265625 -3.875 C 2.546875 -4.125 2.972656 -4.296875 3.546875 -4.390625 L 3.71875 -4.40625 C 2.84375 -4.539062 2.210938 -4.84375 1.828125 -5.3125 C 1.441406 -5.78125 1.25 -6.304688 1.25 -6.890625 C 1.25 -7.554688 1.519531 -8.097656 2.0625 -8.515625 C 2.601562 -8.929688 3.375 -9.140625 4.375 -9.140625 C 4.582031 -9.140625 4.765625 -9.140625 4.921875 -9.140625 L 6.328125 -9.125 C 7.015625 -9.125 7.539062 -9.132812 7.90625 -9.15625 Z M 2.546875 -6.84375 C 2.546875 -6.125 2.703125 -5.570312 3.015625 -5.1875 C 3.335938 -4.800781 3.925781 -4.609375 4.78125 -4.609375 L 5.65625 -4.609375 L 5.65625 -7.78125 C 5.65625 -8.09375 5.628906 -8.328125 5.578125 -8.484375 C 5.523438 -8.640625 5.429688 -8.75 5.296875 -8.8125 C 5.160156 -8.875 4.960938 -8.90625 4.703125 -8.90625 C 3.953125 -8.90625 3.40625 -8.726562 3.0625 -8.375 C 2.71875 -8.019531 2.546875 -7.507812 2.546875 -6.84375 Z M 2.546875 -6.84375 "/></g></g></g></svg>